<svg width="594" height="416" viewBox="0 0 594 416" fill="none" xmlns="http://www.w3.org/2000/svg">
<path d="M242.25 108C238.88 108.007 235.648 109.335 233.245 111.698C230.843 114.061 229.463 117.271 229.4 120.64C229.413 122.314 229.756 123.97 230.409 125.512C231.061 127.054 232.012 128.452 233.205 129.626C234.398 130.801 235.811 131.729 237.363 132.358C238.915 132.986 240.576 133.303 242.25 133.29C245.542 133.197 248.668 131.825 250.964 129.463C253.26 127.102 254.544 123.938 254.544 120.645C254.544 117.352 253.26 114.188 250.964 111.827C248.668 109.465 245.542 108.093 242.25 108V108Z" fill="white"/>
<path d="M290.22 109H272.4V264.44H290.22V109Z" fill="white"/>
<path d="M358.7 159C327.41 159 304.4 183 304.4 212.88C304.4 242.76 327.4 266.77 358.7 266.77C389.79 266.77 412.8 242.77 412.8 212.88C412.8 182.99 389.79 159 358.7 159ZM358.7 250.19C337.15 250.19 322.64 233.61 322.64 212.88C322.64 192.15 337.15 175.58 358.7 175.58C380.25 175.58 394.56 192.16 394.56 212.88C394.56 233.6 380.31 250.24 358.7 250.24V250.19Z" fill="white"/>
<path d="M485.06 177.69V161.32H455.22V134L437.4 143V161.35H415.4V177.69H437.4V234.27C437.4 255.83 451.07 265.98 469.1 265.98C474.534 266.037 479.94 265.196 485.1 263.49V247.54C481.027 248.914 476.758 249.613 472.46 249.61C461.27 249.61 455.26 245.26 455.26 231.99V177.69H485.06Z" fill="white"/>
<path d="M162.6 158.03C149.16 158.009 136.195 163.001 126.24 172.03V160.38H108.4V307.38H126.24V252.38C132.764 258.28 140.626 262.504 149.147 264.686C157.668 266.868 166.593 266.943 175.15 264.904C183.706 262.866 191.638 258.775 198.26 252.984C204.882 247.194 209.995 239.879 213.157 231.671C216.319 223.463 217.436 214.608 216.41 205.872C215.385 197.136 212.248 188.78 207.271 181.528C202.293 174.275 195.625 168.343 187.843 164.244C180.06 160.145 171.396 158.002 162.6 158V158.03ZM162.6 248.59C155.411 248.58 148.386 246.439 142.413 242.438C136.44 238.437 131.788 232.755 129.043 226.11C126.299 219.465 125.586 212.156 126.995 205.106C128.403 198.056 131.87 191.582 136.957 186.502C142.044 181.422 148.523 177.964 155.575 176.565C162.627 175.166 169.935 175.889 176.576 178.643C183.217 181.396 188.893 186.056 192.886 192.035C196.879 198.013 199.01 205.041 199.01 212.23C199.016 217.013 198.079 221.751 196.252 226.171C194.424 230.592 191.743 234.608 188.36 237.99C184.978 241.373 180.962 244.054 176.541 245.882C172.121 247.709 167.383 248.647 162.6 248.64V248.59Z" fill="white"/>
<path d="M163.26 225.72C170.915 225.72 177.12 219.515 177.12 211.86C177.12 204.205 170.915 198 163.26 198C155.605 198 149.4 204.205 149.4 211.86C149.4 219.515 155.605 225.72 163.26 225.72Z" fill="white"/>
<path d="M218.4 161L222.55 177.37H233.37V264.63H251.2V161H218.4Z" fill="white"/>
</svg>
